PathFileType	4	(X/Y/Z)	E:\Qualisys_Data\Carbon_Farble_Plate\Data\Amateur_Runner\S14\T1\S14T1V23_c3d.trc
DataRate	CameraRate	NumFrames	NumMarkers	Units	OrigDataRate	OrigDataStartFrame	OrigNumFrames
200.000000	200.000000	4	39	mm	200.000000	38	308
Frame#	Time	LSHO			RSHO			LICST			RICST			LASIS			LHEEL			RASIS			LTROC			RTROC			SACR			LTH1			LSK4			LTH2			LTH3			RHM5			LSK2			LTH4			RTH1			LTOE			RTH2			RTH3			RTH4			LLEP			RLEP			LSK1			LSK3			RSK1			LHM5			RSK2			LFT1			RSK3			RSK4			LLME			RLME			RTOE			RHEEL			RFT1			RFT2			LFT2			
		X1	Y1	Z1	X2	Y2	Z2	X3	Y3	Z3	X4	Y4	Z4	X5	Y5	Z5	X6	Y6	Z6	X7	Y7	Z7	X8	Y8	Z8	X9	Y9	Z9	X10	Y10	Z10	X11	Y11	Z11	X12	Y12	Z12	X13	Y13	Z13	X14	Y14	Z14	X15	Y15	Z15	X16	Y16	Z16	X17	Y17	Z17	X18	Y18	Z18	X19	Y19	Z19	X20	Y20	Z20	X21	Y21	Z21	X22	Y22	Z22	X23	Y23	Z23	X24	Y24	Z24	X25	Y25	Z25	X26	Y26	Z26	X27	Y27	Z27	X28	Y28	Z28	X29	Y29	Z29	X30	Y30	Z30	X31	Y31	Z31	X32	Y32	Z32	X33	Y33	Z33	X34	Y34	Z34	X35	Y35	Z35	X36	Y36	Z36	X37	Y37	Z37	X38	Y38	Z38	X39	Y39	Z39	

39	0.19	-2200.97412109375	1409.21728515625	-451.57373046875	-2154.220703125	1394.474853515625	-146.4098205566406	-2252.793212890625	957.711669921875	-435.4781188964844	-2223.514404296875	962.8624877929688	-154.7671813964844	-2209.619140625	908.0507202148438	-409.0155639648438	-2489.579833984375	513.035888671875	-313.5955505371094	-2197.61279296875	923.528076171875	-174.4324951171875	-2349.6201171875	831.1965942382812	-440.9315490722656	-2346.49951171875	876.5836181640625	-127.3526000976562	-2374.714111328125	971.709228515625	-294.9450073242188	-2157.22314453125	662.9099731445312	-468.865966796875	-2290.438232421875	527.4887084960938	-405.4750366210938	-2217.600830078125	622.103759765625	-437.2742309570312	-2092.983154296875	585.228515625	-455.7920227050781	-2376.4638671875	80.47420501708984	-176.4854736328125	-2200.1201171875	544.3934936523438	-435.8678894042969	-2156.359619140625	548.4613037109375	-424.8060302734375	-2201.169677734375	631.3231201171875	-129.8305816650391	-2458.36474609375	260.6922607421875	-369.3468322753906	-2279.11328125	632.7607421875	-125.4158935546875	-2198.838623046875	536.1968994140625	-165.9720764160156	-2281.52783203125	533.1871337890625	-150.9716033935547	-2098.60498046875	514.232421875	-449.4832153320312	-2260.15673828125	461.7506713867188	-164.5126953125	-2186.056884765625	463.7498168945312	-435.1577758789062	-2284.3330078125	449.4617919921875	-411.0396728515625	-2288.002685546875	339.4059448242188	-169.1386260986328	-2488.234375	331.3410949707031	-418.8861083984375	-2361.67333984375	381.7839050292969	-155.3854064941406	-2509.516357421875	492.1020812988281	-285.1928405761719	-2349.163818359375	256.3587951660156	-188.6187591552734	-2411.9013671875	301.412353515625	-172.29541015625	-2454.01025390625	467.4927062988281	-379.5994262695312	-2486.45556640625	144.8197021484375	-201.974365234375	-2307.044189453125	71.46379852294922	-244.0835876464844	-2556.602783203125	128.8875732421875	-256.044677734375	-2548.41357421875	95.6621322631836	-283.1476745605469	-2555.0537109375	108.1208953857422	-227.0463714599609	-2516.594482421875	508.8005065917969	-338.4564514160156
40	0.195	-2183.740966796875	1413.4072265625	-452.4236145019531	-2132.25390625	1397.592895507812	-148.6860961914062	-2233.8720703125	961.1698608398438	-435.2247924804688	-2203.260986328125	965.2593994140624	-155.0743560791016	-2190.70068359375	912.3361206054688	-409.8244934082031	-2465.906982421875	502.5095825195312	-312.7001037597656	-2176.86376953125	926.0441284179688	-176.0053405761719	-2329.02294921875	835.3545532226562	-441.7162170410156	-2325.60791015625	879.430908203125	-127.6071014404297	-2354.5341796875	975.2247314453124	-294.5830383300781	-2133.32861328125	669.5525512695312	-468.244873046875	-2263.82275390625	526.9285278320312	-404.5357666015625	-2193.61962890625	628.3298950195312	-436.9017028808594	-2067.063232421875	593.3384399414062	-454.5941772460938	-2375.75537109375	80.8570556640625	-177.1380920410156	-2173.90283203125	548.0574951171875	-434.8174743652344	-2130.231689453125	555.715576171875	-424.3924865722656	-2188.5869140625	630.611572265625	-131.3641967773438	-2418.032958984375	252.2064666748047	-370.1461486816406	-2266.882080078125	635.30078125	-125.8891525268555	-2189.18798828125	534.9347534179688	-166.4051971435547	-2273.21875	535.7664184570312	-151.0934753417969	-2070.61328125	522.3964233398438	-448.262939453125	-2253.16357421875	463.2798461914062	-164.6115112304688	-2155.45166015625	468.359375	-433.8037414550781	-2253.086181640625	448.8064270019531	-409.8681335449219	-2282.84375	341.5965881347656	-169.0907135009766	-2451.402587890625	321.5169677734375	-419.2094116210938	-2358.805419921875	384.5173034667969	-156.4096984863281	-2482.24755859375	480.6981506347656	-285.3335266113281	-2345.771484375	259.6670532226562	-188.6658935546875	-2407.264404296875	305.3860778808594	-172.7597808837891	-2424.57373046875	458.8066101074219	-379.458984375	-2483.986328125	150.0489501953125	-202.3295135498047	-2306.93798828125	71.69291687011719	-244.2550659179688	-2553.163818359375	134.9597625732422	-255.4681549072266	-2546.750244140625	101.9400100708008	-283.33056640625	-2552.58203125	114.1426620483398	-226.8973236083984	-2489.17333984375	497.2706604003906	-338.677978515625
41	0.2	-2166.236572265625	1416.805908203125	-453.0467224121094	-2109.269775390625	1401.578491210938	-149.6694946289062	-2214.63427734375	964.8134155273438	-435.1815185546875	-2180.930419921875	968.490234375	-156.0970001220703	-2170.644775390625	915.6093139648438	-409.2355346679688	-2439.172607421875	493.7270202636719	-311.1069641113281	-2156.485595703125	928.1534423828124	-175.5503234863281	-2307.559814453125	839.6334228515625	-442.3357543945312	-2305.491455078125	882.3456420898438	-128.3861694335938	-2333.72900390625	978.37939453125	-293.7386779785156	-2108.39111328125	676.0408325195312	-467.3524475097656	-2238.228271484375	527.51025390625	-404.9216918945312	-2167.614990234375	632.580322265625	-436.0182495117188	-2041.712280273438	601.5927734375	-453.7498168945312	-2374.86962890625	81.3679428100586	-177.1426544189453	-2147.987060546875	551.6608276367188	-433.6272888183594	-2103.97412109375	561.903076171875	-422.72216796875	-2174.787353515625	631.707763671875	-132.3142547607422	-2377.423095703125	243.3495635986328	-369.7741088867188	-2252.22314453125	637.9208984375	-126.4331588745117	-2179.02685546875	535.8646850585938	-167.1778564453125	-2262.23974609375	538.025390625	-151.7885437011719	-2042.94091796875	530.2555541992188	-447.0597534179688	-2245.051025390625	465.6098327636719	-164.8135528564453	-2125.799072265625	472.1613159179688	-433.1631774902344	-2223.06591796875	448.9704284667969	-409.4067687988281	-2277.210205078125	344.1089782714844	-168.5558319091797	-2414.00341796875	311.3906555175781	-419.0167846679688	-2350.490234375	388.7837219238281	-156.2160797119141	-2453.57861328125	469.0084533691406	-285.061279296875	-2340.61865234375	263.2046203613281	-188.2475128173828	-2403.1083984375	310.6233825683594	-173.2109069824219	-2394.35302734375	450.1300048828125	-379.4954833984375	-2480.750244140625	154.7066802978516	-201.6110229492188	-2306.709716796875	71.661376953125	-243.9854583740234	-2550.70947265625	143.0970153808594	-254.6936187744141	-2544.520263671875	109.3951644897461	-282.6183776855469	-2549.839111328125	121.3607788085938	-226.0167846679688	-2461.90966796875	484.8067626953125	-339.0854187011719
42	0.205	-2148.396240234375	1420.7734375	-453.237548828125	-2087.906982421875	1405.832153320312	-152.2734375	-2196.972412109375	969.7692260742188	-436.4165954589844	-2158.846435546875	971.9796142578124	-156.4571838378906	-2150.657470703125	919.4314575195312	-409.6317749023438	-2410.9716796875	480.3286437988281	-312.2363586425781	-2135.078369140625	930.4691772460938	-176.1691284179688	-2286.6162109375	845.14306640625	-443.7424926757812	-2285.4951171875	885.6555786132812	-128.6827545166016	-2312.864501953125	981.9096069335938	-293.0729675292969	-2085.158935546875	682.9804077148438	-466.7261352539062	-2211.094482421875	525.5737915039062	-403.5960693359375	-2143.308837890625	638.9095458984375	-436.189697265625	-2017.153198242188	609.9334106445312	-452.845458984375	-2374.678955078125	82.02940368652344	-177.3635559082031	-2122.0966796875	554.0596313476562	-432.169921875	-2078.29150390625	567.53662109375	-421.5767211914062	-2160.347900390625	633.4064331054688	-133.2488708496094	-2336.7109375	235.7250061035156	-368.4033813476562	-2239.241943359375	641.1995849609375	-126.8598785400391	-2168.6533203125	537.378662109375	-168.0540466308594	-2250.258056640625	542.26220703125	-151.2619781494141	-2017.27734375	539.6423950195312	-446.7936096191406	-2237.086181640625	468.358642578125	-165.1661376953125	-2096.49365234375	476.3338623046875	-431.9690246582031	-2192.43017578125	448.1383972167969	-409.0878601074219	-2271.18212890625	348.366455078125	-168.1620025634766	-2377.2763671875	299.4162292480469	-420.6255798339844	-2342.85888671875	393.6403198242188	-155.6804809570312	-2422.62841796875	456.4727478027344	-284.8406677246094	-2335.9091796875	267.7379760742188	-186.9067993164062	-2396.912841796875	315.8003234863281	-172.9954223632812	-2364.382568359375	440.3838806152344	-379.3661193847656	-2477.150390625	160.1533050537109	-201.1822509765625	-2306.929931640625	71.6156005859375	-244.0065460205078	-2545.420654296875	149.8627624511719	-253.6159973144531	-2541.011474609375	116.0335083007812	-281.6908874511719	-2550.655029296875	128.2307586669922	-225.9100952148438	-2433.240234375	471.8995971679688	-338.6753234863281
